<svg xmlns="http://www.w3.org/2000/svg" version="1.1" xmlns:xlink="http://www.w3.org/1999/xlink" xmlns:svgjs="http://svgjs.dev/svgjs" width="1500" height="1500" viewBox="0 0 1500 1500"><rect width="1500" height="1500" fill="#ffffff"></rect><g transform="matrix(0.6666666666666666,0,0,0.6666666666666666,249.39393939393938,476.73728831412313)"><svg viewBox="0 0 396 217" data-background-color="#010c80" preserveAspectRatio="xMidYMid meet" height="821" width="1500" xmlns="http://www.w3.org/2000/svg" xmlns:xlink="http://www.w3.org/1999/xlink"><g id="tight-bounds" transform="matrix(1,0,0,1,0.2400000000000091,-0.16015511114136416)"><svg viewBox="0 0 395.52 217.32031022228273" height="217.32031022228273" width="395.52"><g><svg viewBox="0 0 395.52 217.32031022228273" height="217.32031022228273" width="395.52"><g transform="matrix(1,0,0,1,0,160.67775411729986)"><svg viewBox="0 0 395.52 56.64255610498288" height="56.64255610498288" width="395.52"><g id="textblocktransform"><svg viewBox="0 0 395.52 56.64255610498288" height="56.64255610498288" width="395.52" id="textblock"><g><svg viewBox="0 0 395.52 56.64255610498288" height="56.64255610498288" width="395.52"><g transform="matrix(1,0,0,1,0,0)"><svg width="395.52" viewBox="2.49 -36.52 256.71999999999997 36.760000000000005" height="56.64255610498288" data-palette-color="#77d4fc"><path d="M2.49-35.99L29.88-35.99 29.88-31.98 19.14-31.98 19.14 0 13.23 0 13.23-31.98 2.49-31.98 2.49-35.99ZM42.33-35.99L42.33-18.75Q42.33-14.99 42.82-12.38 43.31-9.77 44.24-8.08 45.16-6.4 46.46-5.57 47.75-4.74 49.36-4.59L49.36-4.59 49.36 0.24Q46.38 0.05 43.97-1.2 41.55-2.44 39.89-4.76 38.23-7.08 37.3-10.45 36.37-13.82 36.37-18.16L36.37-18.16 36.37-35.99 42.33-35.99ZM58.44-35.99L64.35-35.99 64.35-18.16Q64.35-13.82 63.43-10.45 62.5-7.08 60.81-4.76 59.13-2.44 56.74-1.2 54.34 0.05 51.36 0.24L51.36 0.24 51.36-4.59Q52.98-4.79 54.27-5.59 55.56-6.4 56.49-8.06 57.42-9.72 57.93-12.33 58.44-14.94 58.44-18.75L58.44-18.75 58.44-35.99ZM70.84-35.99L98.24-35.99 98.24-31.98 87.5-31.98 87.5 0 81.59 0 81.59-31.98 70.84-31.98 70.84-35.99ZM104.48-18.16L104.48-18.16Q104.48-22.51 105.53-25.85 106.58-29.2 108.46-31.52 110.34-33.84 112.91-35.08 115.47-36.33 118.5-36.52L118.5-36.52 118.5-31.64Q116.84-31.45 115.37-30.62 113.91-29.79 112.83-28.17 111.76-26.56 111.13-24.07 110.49-21.58 110.44-18.16L110.44-18.16Q110.49-14.7 111.13-12.23 111.76-9.77 112.86-8.11 113.96-6.45 115.42-5.59 116.89-4.74 118.5-4.59L118.5-4.59 118.5 0.24Q115.52 0.05 112.93-1.2 110.34-2.44 108.46-4.76 106.58-7.08 105.53-10.45 104.48-13.82 104.48-18.16ZM120.45-31.69L120.45-36.52Q123.43-36.38 125.99-35.11 128.56-33.84 130.44-31.52 132.32-29.2 133.39-25.85 134.47-22.51 134.47-18.16L134.47-18.16Q134.47-13.82 133.39-10.45 132.32-7.08 130.44-4.76 128.56-2.44 126.02-1.2 123.48 0.05 120.45 0.24L120.45 0.24 120.45-4.59Q122.11-4.79 123.58-5.64 125.04-6.49 126.12-8.13 127.19-9.77 127.82-12.23 128.46-14.7 128.51-18.16L128.51-18.16Q128.46-21.63 127.82-24.1 127.19-26.56 126.09-28.2 124.99-29.83 123.53-30.69 122.06-31.54 120.45-31.69L120.45-31.69ZM142.62 0L142.62-35.99 148.48-35.99 148.48 0 142.62 0ZM158.83-14.16L167.03 0 160.83 0 154.04-13.04Q153.9-13.04 153.73-13.01 153.55-12.99 153.21-12.99 152.87-12.99 152.21-12.99 151.55-12.99 150.48-12.99L150.48-12.99 150.48-17.29 153.8-17.29Q154.87-17.29 155.95-17.65 157.02-18.02 157.9-18.85 158.78-19.68 159.32-21.17 159.85-22.66 159.85-24.85L159.85-24.85Q159.85-25.73 159.61-26.88 159.37-28.03 158.61-29.08 157.85-30.13 156.48-30.83 155.12-31.54 152.87-31.54L152.87-31.54 150.48-31.54 150.48-35.99 152.97-35.99Q155.26-35.99 157.51-35.25 159.76-34.52 161.54-33.06 163.32-31.59 164.42-29.52 165.52-27.44 165.52-24.85L165.52-24.85Q165.52-20.95 163.71-18.21 161.9-15.48 158.83-14.16L158.83-14.16ZM180.99-35.99L180.99 0 175.04 0 175.04-35.99 180.99-35.99ZM195.44-35.99L195.44-18.75Q195.44-14.99 195.93-12.38 196.42-9.77 197.35-8.08 198.28-6.4 199.57-5.57 200.86-4.74 202.48-4.59L202.48-4.59 202.48 0.24Q199.5 0.05 197.08-1.2 194.66-2.44 193-4.76 191.34-7.08 190.41-10.45 189.49-13.82 189.49-18.16L189.49-18.16 189.49-35.99 195.44-35.99ZM211.56-35.99L217.47-35.99 217.47-18.16Q217.47-13.82 216.54-10.45 215.61-7.08 213.93-4.76 212.24-2.44 209.85-1.2 207.46 0.05 204.48 0.24L204.48 0.24 204.48-4.59Q206.09-4.79 207.38-5.59 208.68-6.4 209.6-8.06 210.53-9.72 211.04-12.33 211.56-14.94 211.56-18.75L211.56-18.75 211.56-35.99ZM225.96 0L225.96-35.99 231.92-35.99 241.58-13.77 241.58-4.74 240.02-4.74 231.92-24.76 231.92 0 225.96 0ZM243.59-13.67L253.25-35.99 259.21-35.99 259.21 0 253.25 0 253.25-24.76 245.2-4.74 243.59-4.74 243.59-13.67Z" opacity="1" transform="matrix(1,0,0,1,0,0)" fill="#000000" class="wordmark-text-0" data-fill-palette-color="primary" id="text-0"></path></svg></g></svg></g></svg></g></svg></g><g transform="matrix(1,0,0,1,130.79307101639,0)"><svg viewBox="0 0 133.93385796721998 133.93385796721998" height="133.93385796721998" width="133.93385796721998"><g><svg></svg></g><g id="icon-0"><svg viewBox="0 0 133.93385796721998 133.93385796721998" height="133.93385796721998" width="133.93385796721998"><g><path d="M0 66.967c0-36.985 29.982-66.967 66.967-66.967 36.985 0 66.967 29.982 66.967 66.967 0 36.985-29.982 66.967-66.967 66.967-36.985 0-66.967-29.982-66.967-66.967zM66.967 128.826c34.164 0 61.859-27.695 61.859-61.859 0-34.164-27.695-61.859-61.859-61.859-34.164 0-61.859 27.695-61.859 61.859 0 34.164 27.695 61.859 61.859 61.859z" data-fill-palette-color="accent" fill="#000000" stroke="transparent"></path><ellipse rx="66.2972596937739" ry="66.2972596937739" cx="66.96692898360999" cy="66.96692898360999" fill="#000000" stroke="transparent" stroke-width="0" fill-opacity="1" data-fill-palette-color="accent"></ellipse></g><g transform="matrix(1,0,0,1,31.86793263801207,31.868073945300353)"><svg viewBox="0 0 70.19799269119584 70.19771007661927" height="70.19771007661927" width="70.19799269119584"><g><svg xmlns="http://www.w3.org/2000/svg" xml:space="preserve" viewBox="16.512730341465588 16.512835210862185 66.97443444767224 66.97416481102442" x="0" y="0" height="70.19771007661927" width="70.19799269119584" class="icon-dxe-0" data-fill-palette-color="quaternary" id="dxe-0"><path d="M68.587 83.487H17.763c-0.69 0-1.25-0.56-1.25-1.25V31.414c0-0.69 0.56-1.25 1.25-1.25h50.824c0.69 0 1.25 0.56 1.25 1.25v50.823c0 0.691-0.56 1.25-1.25 1.25m-49.574-2.5h48.324V32.664H19.013z" fill="#ffffff" data-fill-palette-color="quaternary"></path><path d="M82.237 69.836H31.413c-0.69 0-1.25-0.56-1.25-1.25V17.763c0-0.69 0.56-1.25 1.25-1.25h50.824c0.69 0 1.25 0.56 1.25 1.25v50.823c0 0.69-0.559 1.25-1.25 1.25m-49.574-2.5h48.324V19.013H32.663z" fill="#ffffff" data-fill-palette-color="quaternary"></path><path d="M68.587 32.664a1.25 1.25 0 0 1-0.884-2.134l13.65-13.651a1.25 1.25 0 0 1 1.768 1.768l-13.65 13.651a1.25 1.25 0 0 1-0.884 0.366M17.763 32.664a1.25 1.25 0 0 1-0.884-2.134l13.65-13.651a1.25 1.25 0 0 1 1.768 1.768l-13.65 13.651a1.25 1.25 0 0 1-0.884 0.366M68.587 83.487a1.25 1.25 0 0 1-0.884-2.134l13.65-13.651a1.25 1.25 0 0 1 1.768 1.768l-13.65 13.651a1.25 1.25 0 0 1-0.884 0.366M17.763 83.487a1.25 1.25 0 0 1-0.884-2.134l13.65-13.651a1.25 1.25 0 0 1 1.768 1.768l-13.65 13.651a1.25 1.25 0 0 1-0.884 0.366" fill="#ffffff" data-fill-palette-color="quaternary"></path></svg></g></svg></g></svg></g></svg></g><g></g></svg></g><defs></defs></svg><rect width="395.52" height="217.32031022228273" fill="none" stroke="none" visibility="hidden"></rect></g></svg></g></svg>